<?xml version="1.0" encoding="UTF-8"?>
<svg xmlns="http://www.w3.org/2000/svg" xmlns:xlink="http://www.w3.org/1999/xlink" width="25px" height="25px" viewBox="0 0 25 25" version="1.1">
<g id="surface1">
<path style=" stroke:none;fill-rule:evenodd;fill:rgb(85.882353%,11.764706%,18.431373%);fill-opacity:1;" d="M 3.933594 18.035156 L 3.933594 17.023438 C 3.933594 17.023438 8.699219 12.457031 10.382812 11.792969 C 10.382812 11.792969 13.644531 10.34375 14.558594 14.570312 C 15.09375 17.042969 15.703125 18.902344 18.082031 18.027344 C 18.902344 17.726562 19.875 17.0625 21.195312 16.042969 L 21.429688 16.945312 C 21.429688 16.945312 11.90625 27.011719 8.671875 16.960938 C 8.441406 16.253906 7.933594 16.058594 7.359375 16.128906 C 5.960938 16.308594 3.933594 18.03125 3.933594 18.03125 "/>
<path style=" stroke:none;fill-rule:evenodd;fill:rgb(85.882353%,11.764706%,18.431373%);fill-opacity:1;" d="M 17.445312 4.660156 C 17.992188 5.570312 18.132812 7.019531 16.753906 7.847656 C 16.160156 8.203125 15.5 8.4375 14.816406 8.542969 C 13.460938 8.726562 12.125 8.484375 12.027344 8.324219 C 11.886719 8.089844 12.832031 4.765625 14.289062 3.890625 C 15.664062 3.066406 16.933594 3.808594 17.445312 4.660156 Z M 17.445312 4.660156 "/>
</g>
</svg>
