<svg width="798" height="276" viewBox="0 0 798 276" fill="none" xmlns="http://www.w3.org/2000/svg">
<path d="M294.37 58.4795C294.37 39.7995 308.43 27.1895 326.66 27.1895C339.9 27.1895 347.61 34.3595 351.87 41.9695L340.81 47.4195C339.455 44.8202 337.428 42.6323 334.939 41.0843C332.45 39.5364 329.591 38.6851 326.66 38.6195C315.59 38.6195 307.61 47.0495 307.61 58.4795C307.61 69.9095 315.61 78.3394 326.66 78.3394C329.591 78.2738 332.45 77.4225 334.939 75.8746C337.428 74.3266 339.455 72.1387 340.81 69.5395L351.87 74.8895C347.61 82.4195 339.87 89.7694 326.66 89.7694C308.43 89.7694 294.37 77.0695 294.37 58.4795Z" fill="#231F20"/>
<path d="M356.5 66.7291C356.5 54.0391 365.93 43.7891 379.17 43.7891C392.41 43.7891 401.12 53.5791 401.12 67.7891V70.5091H368.56C369.38 75.8591 373.73 80.3091 381.17 80.3091C384.88 80.3091 389.96 78.7691 392.77 76.0391L397.94 83.6591C393.59 87.6591 386.7 89.7391 379.94 89.7391C366.6 89.7391 356.54 80.7391 356.54 66.7391L356.5 66.7291ZM379.21 53.2291C372.05 53.2291 368.96 58.2291 368.51 62.5691H390.09C389.73 58.3991 386.83 53.2291 379.21 53.2291" fill="#231F20"/>
<path d="M439 88.6798V62.1998C439 56.1198 435.85 53.9998 431 53.9998C429.056 54.0346 427.146 54.5108 425.414 55.3927C423.681 56.2745 422.172 57.5388 421 59.0898V88.6798H409.46V44.8798H421V50.4998C422.938 48.3641 425.306 46.6623 427.948 45.5059C430.59 44.3495 433.446 43.7647 436.33 43.7898C446.03 43.7898 450.66 49.2298 450.66 57.7898V88.6798H439Z" fill="#231F20"/>
<path d="M464.33 77.7089V54.9389H457.08V44.8789H464.33V32.8789H475.85V44.8789H484.74V54.9389H475.85V74.6189C475.85 77.4289 477.3 79.5189 479.85 79.5189C481.307 79.5876 482.737 79.1016 483.85 78.1589L486.3 86.9589C484.58 88.4989 481.5 89.7689 476.69 89.7689C468.62 89.7689 464.35 85.5989 464.35 77.7089" fill="#231F20"/>
<path d="M492.63 88.6795V44.8795H504.15V50.7695C507.32 46.9595 512.67 43.7695 518.15 43.7695V54.9995C517.103 54.7959 516.036 54.7054 514.97 54.7295C511.16 54.7295 506.08 56.9095 504.18 59.7295V88.6795H492.63Z" fill="#231F20"/>
<path d="M522.47 66.7291C522.47 54.3091 531.17 43.7891 545.59 43.7891C560.01 43.7891 568.81 54.3091 568.81 66.7291C568.81 79.1491 560.11 89.7291 545.59 89.7291C531.07 89.7291 522.47 79.1191 522.47 66.7291ZM556.84 66.7291C556.84 59.9291 552.84 54.0391 545.59 54.0391C538.34 54.0391 534.44 59.9291 534.44 66.7291C534.44 73.5291 538.44 79.5191 545.59 79.5191C552.74 79.5191 556.84 73.6191 556.84 66.7291" fill="#231F20"/>
<path d="M630.85 88.6795V83.0594C629.271 85.1492 627.227 86.8431 624.881 88.0076C622.535 89.1721 619.95 89.7753 617.33 89.7694C606.33 89.7694 597.93 81.4194 597.93 66.7694C597.93 52.5294 606.18 43.8295 617.33 43.8295C619.953 43.8015 622.546 44.3949 624.896 45.5612C627.246 46.7274 629.286 48.4334 630.85 50.5395V28.1895H642.45V88.6795H630.85ZM630.85 74.5294V58.9995C628.94 56.0995 624.77 53.9995 620.96 53.9995C614.34 53.9995 609.81 59.1695 609.81 66.6895C609.81 74.2095 614.34 79.5194 621 79.5194C622.922 79.5017 624.814 79.0414 626.529 78.1743C628.244 77.3072 629.737 76.0566 630.89 74.5194" fill="#231F20"/>
<path d="M651.07 66.7291C651.07 54.0391 660.5 43.7891 673.75 43.7891C687 43.7891 695.69 53.5791 695.69 67.7891V70.5091H663.13C663.95 75.8591 668.3 80.3091 675.74 80.3091C679.46 80.3091 684.54 78.7691 687.35 76.0391L692.52 83.6591C688.16 87.6591 681.27 89.7391 674.52 89.7391C661.19 89.7391 651.12 80.7391 651.12 66.7391L651.07 66.7291ZM673.8 53.2291C666.63 53.2291 663.55 58.2291 663.09 62.5691H684.68C684.32 58.3991 681.41 53.2291 673.8 53.2291" fill="#231F20"/>
<path d="M310.15 116.619H297.27V177.109H310.15V116.619Z" fill="#231F20"/>
<path d="M351.41 177.109V150.629C351.41 144.549 348.24 142.469 343.34 142.469C341.397 142.503 339.487 142.978 337.755 143.858C336.023 144.738 334.513 146 333.34 147.549V177.109H321.85V133.309H333.36V138.929C335.299 136.795 337.667 135.094 340.308 133.937C342.95 132.781 345.806 132.196 348.69 132.219C358.39 132.219 363.02 137.659 363.02 146.219V177.149L351.41 177.109Z" fill="#231F20"/>
<path d="M377 177.109V143.369H369.74V133.309H377V131.489C377 121.609 382.89 115.709 391.69 115.709C395.95 115.709 400.49 116.889 403.11 119.879L398.76 126.879C397.449 125.696 395.725 125.074 393.96 125.149C390.69 125.149 388.51 127.239 388.51 131.499V133.319H397.4V143.379H388.5V177.119L377 177.109Z" fill="#231F20"/>
<path d="M401.2 155.159C401.2 142.739 409.91 132.219 424.33 132.219C438.75 132.219 447.55 142.739 447.55 155.159C447.55 167.579 438.84 178.159 424.33 178.159C409.82 178.159 401.2 167.549 401.2 155.159V155.159ZM435.57 155.159C435.57 148.359 431.57 142.469 424.33 142.469C417.09 142.469 413.17 148.359 413.17 155.159C413.17 161.959 417.17 167.949 424.33 167.949C431.49 167.949 435.57 162.049 435.57 155.159Z" fill="#231F20"/>
<path d="M456.16 177.109V133.309H467.68V139.199C470.85 135.389 476.21 132.199 481.68 132.199V143.439C480.633 143.236 479.567 143.145 478.5 143.169C474.69 143.169 469.62 145.349 467.71 148.169V177.099L456.16 177.109Z" fill="#231F20"/>
<path d="M543.14 177.109V149.449C543.14 145.369 541.32 142.449 536.61 142.449C532.53 142.449 529.17 145.169 527.54 147.529V177.089H515.93V149.449C515.93 145.369 514.11 142.449 509.4 142.449C505.4 142.449 502.05 145.169 500.33 147.529V177.089H488.81V133.289H500.33V138.909C502.123 136.858 504.322 135.202 506.789 134.047C509.256 132.892 511.937 132.263 514.66 132.199C521.1 132.199 525.27 135.199 526.81 140.089C528.523 137.682 530.779 135.713 533.396 134.342C536.013 132.971 538.916 132.237 541.87 132.199C549.94 132.199 554.74 136.459 554.74 145.439V177.089L543.14 177.109Z" fill="#231F20"/>
<path d="M592.47 177.109V172.479C589.47 176.109 584.31 178.199 578.6 178.199C571.6 178.199 563.45 173.479 563.45 163.689C563.45 153.349 571.62 149.539 578.6 149.539C584.49 149.539 589.6 151.439 592.47 154.889V149.359C592.47 144.919 588.67 142.009 582.86 142.009C578.154 142.059 573.645 143.909 570.26 147.179L565.72 139.109C571.024 134.517 577.846 132.061 584.86 132.219C594.92 132.219 604.08 136.219 604.08 148.819V177.109H592.47ZM592.47 166.589V161.149C590.57 158.609 586.94 157.249 583.23 157.249C578.69 157.249 574.97 159.699 574.97 163.869C574.97 168.039 578.69 170.399 583.23 170.399C586.94 170.399 590.57 169.129 592.47 166.589ZM586 126.689H577.92L590 113.629H600.61L586 126.689Z" fill="#231F20"/>
<path d="M617.78 166.139V143.369H610.53V133.309H617.78V121.309H629.3V133.309H638.19V143.369H629.3V163.049C629.3 165.859 630.75 167.949 633.3 167.949C634.757 168.015 636.186 167.53 637.3 166.589L639.75 175.389C638.03 176.929 634.94 178.199 630.13 178.199C622.06 178.199 617.8 174.029 617.8 166.139" fill="#231F20"/>
<path d="M645 121.7C645.068 119.93 645.819 118.254 647.095 117.026C648.371 115.798 650.074 115.111 651.845 115.111C653.617 115.111 655.319 115.798 656.595 117.026C657.872 118.254 658.622 119.93 658.69 121.7C658.725 122.621 658.574 123.539 658.246 124.4C657.918 125.261 657.42 126.048 656.78 126.712C656.141 127.376 655.375 127.904 654.527 128.265C653.679 128.625 652.767 128.811 651.845 128.811C650.924 128.811 650.011 128.625 649.163 128.265C648.315 127.904 647.549 127.376 646.91 126.712C646.271 126.048 645.772 125.261 645.444 124.4C645.116 123.539 644.965 122.621 645 121.7ZM646.09 133.31H657.6V177.11H646.08L646.09 133.31Z" fill="#231F20"/>
<path d="M666.21 155.159C666.21 141.739 676.01 132.219 689.43 132.219C698.43 132.219 703.85 136.119 706.75 140.109L699.22 147.179C698.21 145.668 696.829 144.441 695.21 143.617C693.59 142.792 691.786 142.397 689.97 142.469C682.97 142.469 678.09 147.549 678.09 155.159C678.09 162.769 683 167.999 690 167.999C691.821 168.035 693.622 167.613 695.238 166.773C696.854 165.932 698.233 164.7 699.25 163.189L706.78 170.269C703.88 174.269 698.44 178.269 689.46 178.269C676.04 178.269 666.24 168.739 666.24 155.269" fill="#231F20"/>
<path d="M740.58 177.109V172.489C737.58 176.109 732.42 178.199 726.7 178.199C719.7 178.199 711.56 173.479 711.56 163.689C711.56 153.349 719.72 149.539 726.7 149.539C732.6 149.539 737.7 151.439 740.58 154.889V149.359C740.58 144.909 736.77 142.009 730.97 142.009C726.261 142.059 721.749 143.909 718.36 147.179L713.83 139.109C719.141 134.508 725.976 132.052 733 132.219C743.07 132.219 752.23 136.219 752.23 148.819V177.109H740.58ZM740.58 166.589V161.149C738.67 158.609 735.05 157.249 731.33 157.249C726.79 157.249 723.08 159.699 723.08 163.869C723.08 168.039 726.79 170.399 731.33 170.399C735.05 170.399 738.67 169.129 740.58 166.589Z" fill="#231F20"/>
<path d="M296.56 199.73H301.15V218.08C301.15 223.26 304.02 226.59 309.34 226.59C314.66 226.59 317.49 223.26 317.49 218.08V199.73H322.09V218.17C322.09 225.72 317.86 230.64 309.34 230.64C300.82 230.64 296.56 225.64 296.56 218.21V199.73Z" fill="#231F20"/>
<path d="M337.97 199.73H358.36V203.74H342.52V212.62H358.04V216.62H342.52V230.09H337.97V199.73Z" fill="#231F20"/>
<path d="M372.38 199.73H385.17C391.4 199.73 394.86 204.01 394.86 209.06C394.86 214.11 391.35 218.39 385.17 218.39H376.93V230.09H372.38V199.73ZM384.57 203.73H376.93V214.38H384.57C387.85 214.38 390.17 212.24 390.17 209.05C390.17 205.86 387.85 203.73 384.57 203.73Z" fill="#231F20"/>
<path d="M408.65 199.73H429.04V203.74H413.2V212.62H428.72V216.62H413.2V226.09H429.04V230.09H408.65V199.73Z" fill="#231F20"/>
<path fill-rule="evenodd" clip-rule="evenodd" d="M43.7002 196.8V184.56C43.7002 184.56 101.35 129.34 121.7 121.32C121.7 121.32 161.17 103.8 172.21 154.91C178.67 184.83 186.08 207.33 214.84 196.74C224.73 193.1 236.5 185.04 252.49 172.74L255.31 183.69C255.31 183.69 140.16 305.39 101 183.85C98.2402 175.29 92.0802 172.93 85.1202 173.79C68.2502 175.97 43.7002 196.79 43.7002 196.79" fill="#DB1E2F"/>
<path fill-rule="evenodd" clip-rule="evenodd" d="M207.15 34.9996C213.74 45.9996 215.48 63.5496 198.78 73.5596C191.59 77.8697 183.628 80.7365 175.34 81.9996C158.93 84.2696 142.78 81.3196 141.63 79.3996C139.92 76.4996 151.36 36.2996 169 25.7296C185.59 15.7696 201 24.7296 207.15 34.9996Z" fill="#DB1E2F"/>
</svg>
